<svg width="232" height="266" fill="none" xmlns="http://www.w3.org/2000/svg"><path d="M113.734 2.836c1.031-2.448 4.5-2.448 5.531 0L132.882 35.2c55.884 8.246 98.773 56.403 98.773 114.579 0 63.97-51.858 115.828-115.828 115.828C51.857 265.606 0 213.748 0 149.778c0-58.67 43.621-107.15 100.2-114.78l13.534-32.162z" fill="#69C000"/><path d="M113.734 2.836c1.031-2.448 4.5-2.448 5.531 0L132.882 35.2c55.884 8.246 98.773 56.403 98.773 114.579 0 63.97-51.858 115.828-115.828 115.828C51.857 265.606 0 213.748 0 149.778c0-58.67 43.621-107.15 100.2-114.78l13.534-32.162z" fill="url(#paint0_radial_2005_42)" fill-opacity=".2" style="mix-blend-mode:plus-lighter"/><path d="M116.537 70.012c44.287 0 80.139 35.635 80.139 79.533s-35.852 79.533-80.139 79.533-80.139-35.635-80.139-79.533 35.852-79.533 80.139-79.533z" stroke="url(#paint1_radial_2005_42)" stroke-width="8" style="mix-blend-mode:soft-light"/><g style="mix-blend-mode:plus-lighter" opacity=".4" filter="url(#filter0_f_2005_42)"><path d="M102 37.265l12.666-31.012c.78-1.91 1.17-2.864 1.839-2.866.669-.002 1.066.95 1.859 2.853L131.5 37.765" stroke="url(#paint2_linear_2005_42)"/></g><g style="mix-blend-mode:lighten" filter="url(#filter1_f_2005_42)"><path d="M110.918 45.533c.629.826-27.448 8.059-43.242 16.988-16.646 9.412-37.98 30.942-38.61 30.116-.628-.826 18.092-25.218 34.75-34.749 16.505-9.444 46.473-13.18 47.102-12.355z" fill="#fff"/></g><g filter="url(#filter2_f_2005_42)"><path d="M188.534 217.897c.577.9-5.641 11.507-17.023 18.796-11.381 7.289-23.617 8.499-24.193 7.599-.577-.9 10.598-3.767 21.979-11.056 11.382-7.289 18.661-16.239 19.237-15.339z" fill="#fff"/></g><g style="mix-blend-mode:overlay" filter="url(#filter3_f_2005_42)"><path d="M116.324 37.54c61.988 0 112.238 50.25 112.238 112.238s-50.25 112.239-112.238 112.239S4.084 211.766 4.084 149.778c0-61.987 50.252-112.239 112.24-112.239z" stroke="url(#paint3_linear_2005_42)"/></g><defs><filter id="filter0_f_2005_42" x="99.537" y=".887" width="34.424" height="39.07" filterUnits="userSpaceOnUse" color-interpolation-filters="sRGB"><feFlood flood-opacity="0" result="BackgroundImageFix"/><feBlend in="SourceGraphic" in2="BackgroundImageFix" result="shape"/><feGaussianBlur stdDeviation="1" result="effect1_foregroundBlur_2005_42"/></filter><filter id="filter1_f_2005_42" x="27.551" y="43.922" width="84.877" height="50.238" filterUnits="userSpaceOnUse" color-interpolation-filters="sRGB"><feFlood flood-opacity="0" result="BackgroundImageFix"/><feBlend in="SourceGraphic" in2="BackgroundImageFix" result="shape"/><feGaussianBlur stdDeviation=".75" result="effect1_foregroundBlur_2005_42"/></filter><filter id="filter2_f_2005_42" x="145.796" y="216.334" width="44.275" height="29.716" filterUnits="userSpaceOnUse" color-interpolation-filters="sRGB"><feFlood flood-opacity="0" result="BackgroundImageFix"/><feBlend in="SourceGraphic" in2="BackgroundImageFix" result="shape"/><feGaussianBlur stdDeviation=".75" result="effect1_foregroundBlur_2005_42"/></filter><filter id="filter3_f_2005_42" x="1.085" y="34.539" width="230.478" height="230.478" filterUnits="userSpaceOnUse" color-interpolation-filters="sRGB"><feFlood flood-opacity="0" result="BackgroundImageFix"/><feBlend in="SourceGraphic" in2="BackgroundImageFix" result="shape"/><feGaussianBlur stdDeviation="1.25" result="effect1_foregroundBlur_2005_42"/></filter><radialGradient id="paint0_radial_2005_42" cx="0" cy="0" r="1" gradientUnits="userSpaceOnUse" gradientTransform="matrix(-32.43114 -113.51197 113.51101 -32.43087 115.828 149.778)"><stop stop-color="#fff" stop-opacity=".4"/><stop offset=".707" stop-opacity="0"/><stop offset=".847" stop-color="#fff"/><stop offset="1" stop-opacity=".2"/></radialGradient><radialGradient id="paint1_radial_2005_42" cx="0" cy="0" r="1" gradientUnits="userSpaceOnUse" gradientTransform="matrix(0 83.5331 -84.1386 0 116.537 149.545)"><stop offset=".831" stop-color="#542203"/><stop offset=".949" stop-color="#fff"/><stop offset="1" stop-color="#542203"/></radialGradient><linearGradient id="paint2_linear_2005_42" x1="116.5" y1="1.265" x2="116.5" y2="37.265" gradientUnits="userSpaceOnUse"><stop offset=".452" stop-color="#fff"/><stop offset="1" stop-color="#fff" stop-opacity="0"/></linearGradient><linearGradient id="paint3_linear_2005_42" x1="37.241" y1="66.617" x2="200.675" y2="228.841" gradientUnits="userSpaceOnUse"><stop stop-color="#fff" stop-opacity=".6"/><stop offset="1" stop-color="#fff" stop-opacity=".1"/></linearGradient></defs></svg>