<svg width="461" height="121" viewBox="0 0 461 121" fill="none" xmlns="http://www.w3.org/2000/svg">
<g filter="url(#filter0_d_3_148670)">
<mask id="path-1-outside-1_3_148670" maskUnits="userSpaceOnUse" x="0" y="0" width="461" height="115" fill="black">
<rect fill="white" width="461" height="115"/>
<path d="M20.863 49.78C18.5013 49.78 16.2263 49.3033 14.038 48.35C11.8497 47.375 9.87799 45.9125 8.12299 43.9625C6.38966 41.9908 5.01382 39.4883 3.99549 36.455C2.97716 33.4217 2.46799 29.8467 2.46799 25.73C2.46799 20.79 3.32382 16.63 5.03549 13.25C6.76882 9.84833 9.07632 7.28083 11.958 5.5475C14.8613 3.7925 18.068 2.915 21.578 2.915C23.9613 2.915 25.9005 3.1425 27.3955 3.5975C28.9122 4.0525 30.1147 4.59416 31.003 5.2225C31.913 5.85083 32.6497 6.425 33.213 6.945L29.573 13.77C28.6413 12.7517 27.6772 11.9392 26.6805 11.3325C25.6838 10.7042 24.0913 10.39 21.903 10.39C19.693 10.39 17.808 11.0292 16.248 12.3075C14.7097 13.5858 13.5288 15.3517 12.7055 17.605C11.9038 19.8367 11.503 22.3933 11.503 25.275C11.503 30.93 12.4455 35.1983 14.3305 38.08C16.2372 40.94 18.523 42.37 21.188 42.37C23.2463 42.37 25.0013 42.0775 26.453 41.4925C27.9047 40.9075 28.988 40.2467 29.703 39.51L33.278 45.945C32.6713 46.4433 31.8588 46.9958 30.8405 47.6025C29.8438 48.1875 28.533 48.6967 26.908 49.13C25.3047 49.5633 23.2897 49.78 20.863 49.78ZM18.4905 66.615C17.1688 66.615 15.9122 66.3117 14.7205 65.705C13.5288 65.12 12.6838 64.6 12.1855 64.145L13.5505 60.115C14.4388 60.57 15.2405 60.9058 15.9555 61.1225C16.6705 61.3608 17.3855 61.48 18.1005 61.48C19.3138 61.48 20.2672 61.1767 20.9605 60.57C21.6538 59.9633 22.0005 59.2917 22.0005 58.555C22.0005 57.3417 21.5347 56.5292 20.603 56.1175C19.6713 55.7058 18.6855 55.5 17.6455 55.5C17.2988 55.5 16.963 55.5217 16.638 55.565C16.313 55.6083 15.9988 55.6517 15.6955 55.695L17.3205 47.96H23.1705L21.9355 52.705C23.8638 52.705 25.4672 53.3658 26.7455 54.6875C28.0455 56.0092 28.6955 57.515 28.6955 59.205C28.6955 61.3283 28.1972 62.9208 27.2005 63.9825C26.2255 65.0442 24.958 65.7483 23.398 66.095C21.838 66.4417 20.2022 66.615 18.4905 66.615ZM37.1836 49L56.3586 2.915H57.0086L76.2486 49H67.4086L64.8736 42.435H48.6886L46.2836 49H37.1836ZM55.5786 23.78L51.0286 36.13H62.4686L57.7236 23.78L56.6186 20.14L55.5786 23.78ZM113.031 49H102.956L91.321 32.62V49H83.066V3.695H95.676C98.7526 3.695 101.504 4.15 103.931 5.06C106.358 5.94833 108.275 7.44333 109.683 9.545C111.092 11.6467 111.796 14.5067 111.796 18.125C111.796 20.0967 111.46 22.1333 110.788 24.235C110.138 26.315 109.044 28.1783 107.506 29.825C105.989 31.4717 103.931 32.62 101.331 33.27L113.031 49ZM91.321 28.525H94.766C96.6726 28.525 98.2651 28.0808 99.5435 27.1925C100.843 26.2825 101.818 25.1017 102.468 23.65C103.14 22.1767 103.476 20.595 103.476 18.905C103.476 15.98 102.804 13.8025 101.461 12.3725C100.118 10.9208 97.821 10.195 94.571 10.195H91.321V28.525ZM123.323 49V3.695H131.578V26.25L146.008 3.695H155.563L140.125 26.185L156.603 49H146.203L131.578 27.2575V49H123.323ZM165.911 49V3.695H174.231V49H165.911ZM219.176 49.78C216.815 49.78 214.54 49.3033 212.351 48.35C210.163 47.375 208.191 45.9125 206.436 43.9625C204.703 41.9908 203.327 39.4883 202.309 36.455C201.291 33.4217 200.781 29.8467 200.781 25.73C200.781 20.79 201.637 16.63 203.349 13.25C205.082 9.84833 207.39 7.28083 210.271 5.5475C213.175 3.7925 216.381 2.915 219.891 2.915C222.275 2.915 224.214 3.1425 225.709 3.5975C227.226 4.0525 228.428 4.59416 229.316 5.2225C230.226 5.85083 230.963 6.425 231.526 6.945L227.886 13.77C226.955 12.7517 225.991 11.9392 224.994 11.3325C223.997 10.7042 222.405 10.39 220.216 10.39C218.006 10.39 216.121 11.0292 214.561 12.3075C213.023 13.5858 211.842 15.3517 211.019 17.605C210.217 19.8367 209.816 22.3933 209.816 25.275C209.816 30.93 210.759 35.1983 212.644 38.08C214.551 40.94 216.836 42.37 219.501 42.37C221.56 42.37 223.315 42.0775 224.766 41.4925C226.218 40.9075 227.301 40.2467 228.016 39.51L231.591 45.945C230.985 46.4433 230.172 46.9958 229.154 47.6025C228.157 48.1875 226.846 48.6967 225.221 49.13C223.618 49.5633 221.603 49.78 219.176 49.78ZM216.804 66.615C215.482 66.615 214.226 66.3117 213.034 65.705C211.842 65.12 210.997 64.6 210.499 64.145L211.864 60.115C212.752 60.57 213.554 60.9058 214.269 61.1225C214.984 61.3608 215.699 61.48 216.414 61.48C217.627 61.48 218.581 61.1767 219.274 60.57C219.967 59.9633 220.314 59.2917 220.314 58.555C220.314 57.3417 219.848 56.5292 218.916 56.1175C217.985 55.7058 216.999 55.5 215.959 55.5C215.612 55.5 215.276 55.5217 214.951 55.565C214.626 55.6083 214.312 55.6517 214.009 55.695L215.634 47.96H221.484L220.249 52.705C222.177 52.705 223.781 53.3658 225.059 54.6875C226.359 56.0092 227.009 57.515 227.009 59.205C227.009 61.3283 226.511 62.9208 225.514 63.9825C224.539 65.0442 223.271 65.7483 221.711 66.095C220.151 66.4417 218.516 66.615 216.804 66.615ZM241.994 49V3.695H265.654V10.78H250.119V21.375H262.469V28.265H250.119V41.655H266.954V49H241.994ZM289.897 49.2275L271.892 3.695H280.927L288.077 23.65L290.58 31.2225L293.082 23.65L299.972 3.695H308.877L290.937 49.2275H289.897ZM316.731 49V3.695H325.051V49H316.731ZM367.8 49H357.725L346.09 32.62V49H337.835V3.695H350.445C353.522 3.695 356.274 4.15 358.7 5.06C361.127 5.94833 363.045 7.44333 364.453 9.545C365.861 11.6467 366.565 14.5067 366.565 18.125C366.565 20.0967 366.23 22.1333 365.558 24.235C364.908 26.315 363.814 28.1783 362.275 29.825C360.759 31.4717 358.7 32.62 356.1 33.27L367.8 49ZM346.09 28.525H349.535C351.442 28.525 353.035 28.0808 354.313 27.1925C355.613 26.2825 356.588 25.1017 357.238 23.65C357.91 22.1767 358.245 20.595 358.245 18.905C358.245 15.98 357.574 13.8025 356.23 12.3725C354.887 10.9208 352.59 10.195 349.34 10.195H346.09V28.525ZM406.555 49.2275L388.55 3.695H397.585L404.735 23.65L407.237 31.2225L409.74 23.65L416.63 3.695H425.535L407.595 49.2275H406.555ZM433.389 49V3.695H457.049V10.78H441.514V21.375H453.864V28.265H441.514V41.655H458.349V49H433.389ZM125.31 112V66.695H133.565V89.25L147.995 66.695H157.55L142.112 89.185L158.59 112H148.19L133.565 90.2575V112H125.31ZM161.845 112L181.02 65.915H181.67L200.91 112H192.07L189.535 105.435H173.35L170.945 112H161.845ZM180.24 86.78L175.69 99.13H187.13L182.385 86.78L181.28 83.14L180.24 86.78ZM205.03 112L223.068 73.715H207.175V66.695H235.32L217.51 104.98H234.475V112H205.03ZM239.312 112L258.487 65.915H259.137L278.377 112H269.537L267.002 105.435H250.817L248.412 112H239.312ZM257.707 86.78L253.157 99.13H264.597L259.852 86.78L258.747 83.14L257.707 86.78ZM316.589 112.91L294.879 88.145L292.864 85.545L293.189 91.85V112H285.194V65.915H285.909L307.294 90.875L309.569 93.8325L309.244 87.625V66.695H317.239V112.91H316.589ZM329.403 95.555L328.558 62.015H337.463L336.553 95.555H329.403ZM329.273 112V102.315H336.683V112H329.273Z"/>
</mask>
<path d="M20.863 49.78C18.5013 49.78 16.2263 49.3033 14.038 48.35C11.8497 47.375 9.87799 45.9125 8.12299 43.9625C6.38966 41.9908 5.01382 39.4883 3.99549 36.455C2.97716 33.4217 2.46799 29.8467 2.46799 25.73C2.46799 20.79 3.32382 16.63 5.03549 13.25C6.76882 9.84833 9.07632 7.28083 11.958 5.5475C14.8613 3.7925 18.068 2.915 21.578 2.915C23.9613 2.915 25.9005 3.1425 27.3955 3.5975C28.9122 4.0525 30.1147 4.59416 31.003 5.2225C31.913 5.85083 32.6497 6.425 33.213 6.945L29.573 13.77C28.6413 12.7517 27.6772 11.9392 26.6805 11.3325C25.6838 10.7042 24.0913 10.39 21.903 10.39C19.693 10.39 17.808 11.0292 16.248 12.3075C14.7097 13.5858 13.5288 15.3517 12.7055 17.605C11.9038 19.8367 11.503 22.3933 11.503 25.275C11.503 30.93 12.4455 35.1983 14.3305 38.08C16.2372 40.94 18.523 42.37 21.188 42.37C23.2463 42.37 25.0013 42.0775 26.453 41.4925C27.9047 40.9075 28.988 40.2467 29.703 39.51L33.278 45.945C32.6713 46.4433 31.8588 46.9958 30.8405 47.6025C29.8438 48.1875 28.533 48.6967 26.908 49.13C25.3047 49.5633 23.2897 49.78 20.863 49.78ZM18.4905 66.615C17.1688 66.615 15.9122 66.3117 14.7205 65.705C13.5288 65.12 12.6838 64.6 12.1855 64.145L13.5505 60.115C14.4388 60.57 15.2405 60.9058 15.9555 61.1225C16.6705 61.3608 17.3855 61.48 18.1005 61.48C19.3138 61.48 20.2672 61.1767 20.9605 60.57C21.6538 59.9633 22.0005 59.2917 22.0005 58.555C22.0005 57.3417 21.5347 56.5292 20.603 56.1175C19.6713 55.7058 18.6855 55.5 17.6455 55.5C17.2988 55.5 16.963 55.5217 16.638 55.565C16.313 55.6083 15.9988 55.6517 15.6955 55.695L17.3205 47.96H23.1705L21.9355 52.705C23.8638 52.705 25.4672 53.3658 26.7455 54.6875C28.0455 56.0092 28.6955 57.515 28.6955 59.205C28.6955 61.3283 28.1972 62.9208 27.2005 63.9825C26.2255 65.0442 24.958 65.7483 23.398 66.095C21.838 66.4417 20.2022 66.615 18.4905 66.615ZM37.1836 49L56.3586 2.915H57.0086L76.2486 49H67.4086L64.8736 42.435H48.6886L46.2836 49H37.1836ZM55.5786 23.78L51.0286 36.13H62.4686L57.7236 23.78L56.6186 20.14L55.5786 23.78ZM113.031 49H102.956L91.321 32.62V49H83.066V3.695H95.676C98.7526 3.695 101.504 4.15 103.931 5.06C106.358 5.94833 108.275 7.44333 109.683 9.545C111.092 11.6467 111.796 14.5067 111.796 18.125C111.796 20.0967 111.46 22.1333 110.788 24.235C110.138 26.315 109.044 28.1783 107.506 29.825C105.989 31.4717 103.931 32.62 101.331 33.27L113.031 49ZM91.321 28.525H94.766C96.6726 28.525 98.2651 28.0808 99.5435 27.1925C100.843 26.2825 101.818 25.1017 102.468 23.65C103.14 22.1767 103.476 20.595 103.476 18.905C103.476 15.98 102.804 13.8025 101.461 12.3725C100.118 10.9208 97.821 10.195 94.571 10.195H91.321V28.525ZM123.323 49V3.695H131.578V26.25L146.008 3.695H155.563L140.125 26.185L156.603 49H146.203L131.578 27.2575V49H123.323ZM165.911 49V3.695H174.231V49H165.911ZM219.176 49.78C216.815 49.78 214.54 49.3033 212.351 48.35C210.163 47.375 208.191 45.9125 206.436 43.9625C204.703 41.9908 203.327 39.4883 202.309 36.455C201.291 33.4217 200.781 29.8467 200.781 25.73C200.781 20.79 201.637 16.63 203.349 13.25C205.082 9.84833 207.39 7.28083 210.271 5.5475C213.175 3.7925 216.381 2.915 219.891 2.915C222.275 2.915 224.214 3.1425 225.709 3.5975C227.226 4.0525 228.428 4.59416 229.316 5.2225C230.226 5.85083 230.963 6.425 231.526 6.945L227.886 13.77C226.955 12.7517 225.991 11.9392 224.994 11.3325C223.997 10.7042 222.405 10.39 220.216 10.39C218.006 10.39 216.121 11.0292 214.561 12.3075C213.023 13.5858 211.842 15.3517 211.019 17.605C210.217 19.8367 209.816 22.3933 209.816 25.275C209.816 30.93 210.759 35.1983 212.644 38.08C214.551 40.94 216.836 42.37 219.501 42.37C221.56 42.37 223.315 42.0775 224.766 41.4925C226.218 40.9075 227.301 40.2467 228.016 39.51L231.591 45.945C230.985 46.4433 230.172 46.9958 229.154 47.6025C228.157 48.1875 226.846 48.6967 225.221 49.13C223.618 49.5633 221.603 49.78 219.176 49.78ZM216.804 66.615C215.482 66.615 214.226 66.3117 213.034 65.705C211.842 65.12 210.997 64.6 210.499 64.145L211.864 60.115C212.752 60.57 213.554 60.9058 214.269 61.1225C214.984 61.3608 215.699 61.48 216.414 61.48C217.627 61.48 218.581 61.1767 219.274 60.57C219.967 59.9633 220.314 59.2917 220.314 58.555C220.314 57.3417 219.848 56.5292 218.916 56.1175C217.985 55.7058 216.999 55.5 215.959 55.5C215.612 55.5 215.276 55.5217 214.951 55.565C214.626 55.6083 214.312 55.6517 214.009 55.695L215.634 47.96H221.484L220.249 52.705C222.177 52.705 223.781 53.3658 225.059 54.6875C226.359 56.0092 227.009 57.515 227.009 59.205C227.009 61.3283 226.511 62.9208 225.514 63.9825C224.539 65.0442 223.271 65.7483 221.711 66.095C220.151 66.4417 218.516 66.615 216.804 66.615ZM241.994 49V3.695H265.654V10.78H250.119V21.375H262.469V28.265H250.119V41.655H266.954V49H241.994ZM289.897 49.2275L271.892 3.695H280.927L288.077 23.65L290.58 31.2225L293.082 23.65L299.972 3.695H308.877L290.937 49.2275H289.897ZM316.731 49V3.695H325.051V49H316.731ZM367.8 49H357.725L346.09 32.62V49H337.835V3.695H350.445C353.522 3.695 356.274 4.15 358.7 5.06C361.127 5.94833 363.045 7.44333 364.453 9.545C365.861 11.6467 366.565 14.5067 366.565 18.125C366.565 20.0967 366.23 22.1333 365.558 24.235C364.908 26.315 363.814 28.1783 362.275 29.825C360.759 31.4717 358.7 32.62 356.1 33.27L367.8 49ZM346.09 28.525H349.535C351.442 28.525 353.035 28.0808 354.313 27.1925C355.613 26.2825 356.588 25.1017 357.238 23.65C357.91 22.1767 358.245 20.595 358.245 18.905C358.245 15.98 357.574 13.8025 356.23 12.3725C354.887 10.9208 352.59 10.195 349.34 10.195H346.09V28.525ZM406.555 49.2275L388.55 3.695H397.585L404.735 23.65L407.237 31.2225L409.74 23.65L416.63 3.695H425.535L407.595 49.2275H406.555ZM433.389 49V3.695H457.049V10.78H441.514V21.375H453.864V28.265H441.514V41.655H458.349V49H433.389ZM125.31 112V66.695H133.565V89.25L147.995 66.695H157.55L142.112 89.185L158.59 112H148.19L133.565 90.2575V112H125.31ZM161.845 112L181.02 65.915H181.67L200.91 112H192.07L189.535 105.435H173.35L170.945 112H161.845ZM180.24 86.78L175.69 99.13H187.13L182.385 86.78L181.28 83.14L180.24 86.78ZM205.03 112L223.068 73.715H207.175V66.695H235.32L217.51 104.98H234.475V112H205.03ZM239.312 112L258.487 65.915H259.137L278.377 112H269.537L267.002 105.435H250.817L248.412 112H239.312ZM257.707 86.78L253.157 99.13H264.597L259.852 86.78L258.747 83.14L257.707 86.78ZM316.589 112.91L294.879 88.145L292.864 85.545L293.189 91.85V112H285.194V65.915H285.909L307.294 90.875L309.569 93.8325L309.244 87.625V66.695H317.239V112.91H316.589ZM329.403 95.555L328.558 62.015H337.463L336.553 95.555H329.403ZM329.273 112V102.315H336.683V112H329.273Z" fill="url(#paint0_linear_3_148670)"/>
<path d="M14.038 48.35L13.224 50.1769L13.2316 50.1803L13.2392 50.1836L14.038 48.35ZM8.12299 43.9625L6.62091 45.283L6.6286 45.2918L6.6364 45.3004L8.12299 43.9625ZM3.99549 36.455L2.09948 37.0915L3.99549 36.455ZM5.03549 13.25L3.25349 12.342L3.25123 12.3464L5.03549 13.25ZM11.958 5.5475L12.9889 7.26135L12.9926 7.25909L11.958 5.5475ZM27.3955 3.5975L26.8132 5.51086L26.8208 5.51315L27.3955 3.5975ZM31.003 5.2225L29.8481 6.85533L29.8573 6.86186L29.8666 6.86829L31.003 5.2225ZM33.213 6.945L34.9777 7.88618L35.7046 6.52316L34.5695 5.47539L33.213 6.945ZM29.573 13.77L28.0974 15.12L30.0066 17.2069L31.3377 14.7112L29.573 13.77ZM26.6805 11.3325L25.6139 13.0243L25.6272 13.0327L25.6406 13.0409L26.6805 11.3325ZM16.248 12.3075L14.9803 10.7605L14.9698 10.7693L16.248 12.3075ZM12.7055 17.605L10.8269 16.9186L10.8232 16.9289L12.7055 17.605ZM14.3305 38.08L12.6568 39.1748L12.6615 39.1821L12.6664 39.1894L14.3305 38.08ZM26.453 41.4925L25.7054 39.6375L26.453 41.4925ZM29.703 39.51L31.4513 38.5387L30.1435 36.1846L28.2678 38.1171L29.703 39.51ZM33.278 45.945L34.5475 47.4905L35.8363 46.4318L35.0263 44.9737L33.278 45.945ZM30.8405 47.6025L31.8529 49.3274L31.8641 49.3207L30.8405 47.6025ZM26.908 49.13L26.3927 47.1975L26.3862 47.1993L26.908 49.13ZM14.7205 65.705L15.6279 63.9227L15.6149 63.9161L15.6018 63.9097L14.7205 65.705ZM12.1855 64.145L10.2912 63.5034L9.87202 64.741L10.837 65.622L12.1855 64.145ZM13.5505 60.115L14.4622 58.3349L12.3996 57.2785L11.6562 59.4734L13.5505 60.115ZM15.9555 61.1225L16.5879 59.2251L16.5618 59.2164L16.5355 59.2085L15.9555 61.1225ZM20.603 56.1175L19.7947 57.9469L20.603 56.1175ZM16.638 55.565L16.9023 57.5475L16.638 55.565ZM15.6955 55.695L13.7382 55.2838L13.151 58.0788L15.9783 57.6749L15.6955 55.695ZM17.3205 47.96V45.96H15.697L15.3632 47.5488L17.3205 47.96ZM23.1705 47.96L25.106 48.4638L25.7577 45.96H23.1705V47.96ZM21.9355 52.705L20 52.2012L19.3483 54.705H21.9355V52.705ZM26.7455 54.6875L25.3079 56.0779L25.3137 56.084L25.3196 56.09L26.7455 54.6875ZM27.2005 63.9825L25.7423 62.6136L25.7348 62.6216L25.7274 62.6297L27.2005 63.9825ZM23.398 66.095L22.9641 64.1426H22.9641L23.398 66.095ZM20.863 49.78V47.78C18.7792 47.78 16.7759 47.3612 14.8368 46.5164L14.038 48.35L13.2392 50.1836C15.6768 51.2455 18.2234 51.78 20.863 51.78V49.78ZM14.038 48.35L14.8519 46.5231C12.9431 45.6726 11.1951 44.3862 9.60958 42.6246L8.12299 43.9625L6.6364 45.3004C8.56089 47.4388 10.7562 49.0774 13.224 50.1769L14.038 48.35ZM8.12299 43.9625L9.62507 42.642C8.10107 40.9084 6.84329 38.6536 5.89149 35.8185L3.99549 36.455L2.09948 37.0915C3.18435 40.323 4.67824 43.0732 6.62091 45.283L8.12299 43.9625ZM3.99549 36.455L5.89149 35.8185C4.95854 33.0395 4.46799 29.689 4.46799 25.73H2.46799H0.467989C0.467989 30.0043 0.995773 33.8039 2.09948 37.0915L3.99549 36.455ZM2.46799 25.73H4.46799C4.46799 21.012 5.28633 17.1816 6.81974 14.1536L5.03549 13.25L3.25123 12.3464C1.36131 16.0784 0.467989 20.568 0.467989 25.73H2.46799ZM5.03549 13.25L6.81748 14.158C8.4044 11.0437 10.4699 8.77655 12.9889 7.26135L11.958 5.5475L10.9271 3.83365C7.68279 5.78511 5.13325 8.65297 3.2535 12.342L5.03549 13.25ZM11.958 5.5475L12.9926 7.25909C15.5727 5.6995 18.4195 4.915 21.578 4.915V2.915V0.914997C17.7165 0.914997 14.15 1.88549 10.9234 3.83591L11.958 5.5475ZM21.578 2.915V4.915C23.8561 4.915 25.5784 5.13505 26.8132 5.51085L27.3955 3.5975L27.9778 1.68415C26.2226 1.14994 24.0666 0.914997 21.578 0.914997V2.915ZM27.3955 3.5975L26.8208 5.51315C28.2157 5.93163 29.1972 6.39497 29.8481 6.85533L31.003 5.2225L32.1579 3.58966C31.0321 2.79336 29.6086 2.17337 27.9702 1.68185L27.3955 3.5975ZM31.003 5.2225L29.8666 6.86829C30.7299 7.46435 31.3851 7.97955 31.8564 8.41461L33.213 6.945L34.5695 5.47539C33.9142 4.87044 33.0961 4.23731 32.1394 3.5767L31.003 5.2225ZM33.213 6.945L31.4483 6.00382L27.8083 12.8288L29.573 13.77L31.3377 14.7112L34.9777 7.88618L33.213 6.945ZM29.573 13.77L31.0486 12.42C30.012 11.2869 28.9048 10.3451 27.7204 9.6241L26.6805 11.3325L25.6406 13.0409C26.4495 13.5333 27.2707 14.2164 28.0974 15.12L29.573 13.77ZM26.6805 11.3325L27.7471 9.64065C26.2587 8.7023 24.1932 8.39 21.903 8.39V10.39V12.39C23.9895 12.39 25.109 12.706 25.6139 13.0243L26.6805 11.3325ZM21.903 10.39V8.39C19.2781 8.39 16.9328 9.16061 14.9803 10.7605L16.248 12.3075L17.5156 13.8545C18.6832 12.8977 20.1079 12.39 21.903 12.39V10.39ZM16.248 12.3075L14.9698 10.7693C13.11 12.3147 11.7474 14.3996 10.827 16.9186L12.7055 17.605L14.584 18.2914C15.3103 16.3037 16.3094 14.8569 17.5262 13.8457L16.248 12.3075ZM12.7055 17.605L10.8232 16.9289C9.92893 19.4184 9.50299 22.2109 9.50299 25.275H11.503H13.503C13.503 22.5758 13.8787 20.2549 14.5877 18.2811L12.7055 17.605ZM11.503 25.275H9.50299C9.50299 31.0935 10.4622 35.8199 12.6568 39.1748L14.3305 38.08L16.0042 36.9852C14.4288 34.5768 13.503 30.7665 13.503 25.275H11.503ZM14.3305 38.08L12.6664 39.1894C14.8234 42.425 17.6628 44.37 21.188 44.37V42.37V40.37C19.3832 40.37 17.6509 39.455 15.9946 36.9706L14.3305 38.08ZM21.188 42.37V44.37C23.4259 44.37 25.4493 44.0533 27.2005 43.3475L26.453 41.4925L25.7054 39.6375C24.5533 40.1017 23.0667 40.37 21.188 40.37V42.37ZM26.453 41.4925L27.2005 43.3475C28.7885 42.7076 30.1539 41.917 31.1382 40.903L29.703 39.51L28.2678 38.1171C27.822 38.5764 27.0208 39.1074 25.7054 39.6375L26.453 41.4925ZM29.703 39.51L27.9547 40.4813L31.5297 46.9163L33.278 45.945L35.0263 44.9737L31.4513 38.5387L29.703 39.51ZM33.278 45.945L32.0085 44.3995C31.5078 44.8109 30.7878 45.3059 29.8169 45.8843L30.8405 47.6025L31.8641 49.3207C32.9299 48.6858 33.8349 48.0758 34.5475 47.4905L33.278 45.945ZM30.8405 47.6025L29.8281 45.8777C29.04 46.3402 27.9149 46.7916 26.3927 47.1975L26.908 49.13L27.4233 51.0625C29.151 50.6017 30.6476 50.0348 31.8529 49.3273L30.8405 47.6025ZM26.908 49.13L26.3862 47.1993C25.0115 47.5708 23.1866 47.78 20.863 47.78V49.78V51.78C23.3927 51.78 25.5978 51.5559 27.4298 51.0607L26.908 49.13ZM18.4905 66.615V64.615C17.488 64.615 16.5419 64.388 15.6279 63.9227L14.7205 65.705L13.8131 67.4873C15.2824 68.2353 16.8496 68.615 18.4905 68.615V66.615ZM14.7205 65.705L15.6018 63.9097C14.4495 63.344 13.8151 62.9246 13.534 62.668L12.1855 64.145L10.837 65.622C11.5526 66.2754 12.6082 66.896 13.8391 67.5003L14.7205 65.705ZM12.1855 64.145L14.0798 64.7866L15.4448 60.7566L13.5505 60.115L11.6562 59.4734L10.2912 63.5034L12.1855 64.145ZM13.5505 60.115L12.6387 61.8951C13.6004 62.3877 14.5154 62.7759 15.3755 63.0366L15.9555 61.1225L16.5355 59.2085C15.9656 59.0357 15.2772 58.7523 14.4622 58.3349L13.5505 60.115ZM15.9555 61.1225L15.323 63.0199C16.2309 63.3225 17.1591 63.48 18.1005 63.48V61.48V59.48C17.6118 59.48 17.1101 59.3992 16.5879 59.2251L15.9555 61.1225ZM18.1005 61.48V63.48C19.642 63.48 21.117 63.0906 22.2775 62.0752L20.9605 60.57L19.6435 59.0648C19.4173 59.2628 18.9856 59.48 18.1005 59.48V61.48ZM20.9605 60.57L22.2775 62.0752C23.2875 61.1914 24.0005 60.0079 24.0005 58.555H22.0005H20.0005C20.0005 58.5754 20.0202 58.7352 19.6435 59.0648L20.9605 60.57ZM22.0005 58.555H24.0005C24.0005 57.7 23.8367 56.8267 23.3862 56.0409C22.9224 55.2319 22.2311 54.6503 21.4113 54.2881L20.603 56.1175L19.7947 57.9469C19.86 57.9758 19.8882 57.9985 19.8966 58.0058C19.9036 58.012 19.9086 58.0174 19.9161 58.0304C19.9314 58.0571 20.0005 58.1967 20.0005 58.555H22.0005ZM20.603 56.1175L21.4113 54.2881C20.2196 53.7615 18.9578 53.5 17.6455 53.5V55.5V57.5C18.4131 57.5 19.1231 57.6501 19.7947 57.9469L20.603 56.1175ZM17.6455 55.5V53.5C17.2154 53.5 16.7911 53.5269 16.3737 53.5825L16.638 55.565L16.9023 57.5475C17.1349 57.5164 17.3822 57.5 17.6455 57.5V55.5ZM16.638 55.565L16.3737 53.5825C16.0429 53.6266 15.7226 53.6708 15.4126 53.7151L15.6955 55.695L15.9783 57.6749C16.2751 57.6325 16.5831 57.59 16.9023 57.5475L16.638 55.565ZM15.6955 55.695L17.6528 56.1062L19.2778 48.3712L17.3205 47.96L15.3632 47.5488L13.7382 55.2838L15.6955 55.695ZM17.3205 47.96V49.96H23.1705V47.96V45.96H17.3205V47.96ZM23.1705 47.96L21.235 47.4562L20 52.2012L21.9355 52.705L23.871 53.2088L25.106 48.4638L23.1705 47.96ZM21.9355 52.705V54.705C23.3514 54.705 24.4264 55.1666 25.3079 56.0779L26.7455 54.6875L28.1831 53.2971C26.5079 51.5651 24.3763 50.705 21.9355 50.705V52.705ZM26.7455 54.6875L25.3196 56.09C26.2908 57.0773 26.6955 58.093 26.6955 59.205H28.6955H30.6955C30.6955 56.937 29.8002 54.941 28.1713 53.285L26.7455 54.6875ZM28.6955 59.205H26.6955C26.6955 61.0504 26.2599 62.0623 25.7423 62.6136L27.2005 63.9825L28.6586 65.3514C30.1344 63.7794 30.6955 61.6063 30.6955 59.205H28.6955ZM27.2005 63.9825L25.7274 62.6297C25.0591 63.3574 24.1699 63.8747 22.9641 64.1426L23.398 66.095L23.8319 68.0474C25.7461 67.622 27.3918 66.731 28.6735 65.3353L27.2005 63.9825ZM23.398 66.095L22.9641 64.1426C21.5563 64.4555 20.0665 64.615 18.4905 64.615V66.615V68.615C20.3378 68.615 22.1197 68.4279 23.8319 68.0474L23.398 66.095ZM37.1836 49L35.337 48.2317L34.1852 51H37.1836V49ZM56.3586 2.915V0.914997H55.0245L54.512 2.14669L56.3586 2.915ZM57.0086 2.915L58.8542 2.14447L58.3409 0.914997H57.0086V2.915ZM76.2486 49V51H79.2509L78.0942 48.2295L76.2486 49ZM67.4086 49L65.5428 49.7204L66.0369 51H67.4086V49ZM64.8736 42.435L66.7393 41.7146L66.2452 40.435H64.8736V42.435ZM48.6886 42.435V40.435H47.2913L46.8106 41.747L48.6886 42.435ZM46.2836 49V51H47.6809L48.1615 49.688L46.2836 49ZM55.5786 23.78L57.4553 24.4714L57.4811 24.4013L57.5016 24.3294L55.5786 23.78ZM51.0286 36.13L49.1519 35.4386L48.1603 38.13H51.0286V36.13ZM62.4686 36.13V38.13H65.3795L64.3355 35.4127L62.4686 36.13ZM57.7236 23.78L55.8098 24.361L55.8308 24.43L55.8566 24.4973L57.7236 23.78ZM56.6186 20.14L58.5323 19.559L54.6955 19.5906L56.6186 20.14ZM37.1836 49L39.0301 49.7683L58.2051 3.6833L56.3586 2.915L54.512 2.14669L35.337 48.2317L37.1836 49ZM56.3586 2.915V4.915H57.0086V2.915V0.914997H56.3586V2.915ZM57.0086 2.915L55.163 3.68552L74.403 49.7705L76.2486 49L78.0942 48.2295L58.8542 2.14447L57.0086 2.915ZM76.2486 49V47H67.4086V49V51H76.2486V49ZM67.4086 49L69.2743 48.2796L66.7393 41.7146L64.8736 42.435L63.0078 43.1554L65.5428 49.7204L67.4086 49ZM64.8736 42.435V40.435H48.6886V42.435V44.435H64.8736V42.435ZM48.6886 42.435L46.8106 41.747L44.4056 48.312L46.2836 49L48.1615 49.688L50.5665 43.123L48.6886 42.435ZM46.2836 49V47H37.1836V49V51H46.2836V49ZM55.5786 23.78L53.7019 23.0886L49.1519 35.4386L51.0286 36.13L52.9053 36.8214L57.4553 24.4714L55.5786 23.78ZM51.0286 36.13V38.13H62.4686V36.13V34.13H51.0286V36.13ZM62.4686 36.13L64.3355 35.4127L59.5905 23.0627L57.7236 23.78L55.8566 24.4973L60.6016 36.8473L62.4686 36.13ZM57.7236 23.78L59.6373 23.199L58.5323 19.559L56.6186 20.14L54.7048 20.721L55.8098 24.361L57.7236 23.78ZM56.6186 20.14L54.6955 19.5906L53.6555 23.2306L55.5786 23.78L57.5016 24.3294L58.5416 20.6894L56.6186 20.14ZM113.031 49V51H117.011L114.636 47.8064L113.031 49ZM102.956 49L101.325 50.1582L101.923 51H102.956V49ZM91.321 32.62L92.9515 31.4618L89.321 32.62H91.321ZM91.321 49V51H93.321V49H91.321ZM83.066 49H81.066V51H83.066V49ZM83.066 3.695V1.695H81.066V3.695H83.066ZM103.931 5.06L103.229 6.93266L103.236 6.93541L103.243 6.93811L103.931 5.06ZM109.683 9.545L111.345 8.43165L109.683 9.545ZM110.788 24.235L108.883 23.6261L108.88 23.6384L110.788 24.235ZM107.506 29.825L106.044 28.4597L106.04 28.4648L106.035 28.47L107.506 29.825ZM101.331 33.27L100.846 31.3297L97.9362 32.0571L99.7262 34.4636L101.331 33.27ZM91.321 28.525H89.321V30.525H91.321V28.525ZM99.5435 27.1925L100.685 28.8349L100.69 28.831L99.5435 27.1925ZM102.468 23.65L100.649 22.8204L100.643 22.8327L102.468 23.65ZM101.461 12.3725L99.993 13.7309L99.9981 13.7364L100.003 13.7418L101.461 12.3725ZM91.321 10.195V8.195H89.321V10.195H91.321ZM113.031 49V47H102.956V49V51H113.031V49ZM102.956 49L104.586 47.8418L92.9515 31.4618L91.321 32.62L89.6904 33.7782L101.325 50.1582L102.956 49ZM91.321 32.62H89.321V49H91.321H93.321V32.62H91.321ZM91.321 49V47H83.066V49V51H91.321V49ZM83.066 49H85.066V3.695H83.066H81.066V49H83.066ZM83.066 3.695V5.695H95.676V3.695V1.695H83.066V3.695ZM95.676 3.695V5.695C98.5566 5.695 101.064 6.12099 103.229 6.93266L103.931 5.06L104.633 3.18734C101.944 2.179 98.9486 1.695 95.676 1.695V3.695ZM103.931 5.06L103.243 6.93811C105.282 7.68432 106.855 8.91622 108.022 10.6583L109.683 9.545L111.345 8.43165C109.696 5.97044 107.433 4.21234 104.618 3.18188L103.931 5.06ZM109.683 9.545L108.022 10.6583C109.134 12.3172 109.796 14.7401 109.796 18.125H111.796H113.796C113.796 14.2733 113.05 10.9761 111.345 8.43165L109.683 9.545ZM111.796 18.125H109.796C109.796 19.8671 109.5 21.6982 108.883 23.6262L110.788 24.235L112.694 24.8438C113.421 22.5685 113.796 20.3263 113.796 18.125H111.796ZM110.788 24.235L108.88 23.6384C108.322 25.422 107.385 27.0247 106.044 28.4597L107.506 29.825L108.967 31.1903C110.704 29.3319 111.955 27.208 112.697 24.8316L110.788 24.235ZM107.506 29.825L106.035 28.47C104.831 29.7771 103.143 30.7555 100.846 31.3297L101.331 33.27L101.816 35.2103C104.719 34.4845 107.148 33.1663 108.977 31.18L107.506 29.825ZM101.331 33.27L99.7262 34.4636L111.426 50.1936L113.031 49L114.636 47.8064L102.936 32.0764L101.331 33.27ZM91.321 28.525V30.525H94.766V28.525V26.525H91.321V28.525ZM94.766 28.525V30.525C96.9877 30.525 99.0024 30.004 100.685 28.8349L99.5435 27.1925L98.4021 25.5501C97.5278 26.1577 96.3575 26.525 94.766 26.525V28.525ZM99.5435 27.1925L100.69 28.831C102.287 27.7131 103.496 26.2482 104.294 24.4673L102.468 23.65L100.643 22.8327C100.14 23.9551 99.3996 24.8519 98.3965 25.554L99.5435 27.1925ZM102.468 23.65L104.288 24.4796C105.084 22.7344 105.476 20.8684 105.476 18.905H103.476H101.476C101.476 20.3216 101.196 21.6189 100.649 22.8204L102.468 23.65ZM103.476 18.905H105.476C105.476 15.7163 104.748 12.9506 102.919 11.0031L101.461 12.3725L100.003 13.7418C100.86 14.6544 101.476 16.2437 101.476 18.905H103.476ZM101.461 12.3725L102.929 11.0141C101.023 8.95488 98.0331 8.195 94.571 8.195V10.195V12.195C97.6088 12.195 99.2119 12.8868 99.993 13.7309L101.461 12.3725ZM94.571 10.195V8.195H91.321V10.195V12.195H94.571V10.195ZM91.321 10.195H89.321V28.525H91.321H93.321V10.195H91.321ZM123.323 49H121.323V51H123.323V49ZM123.323 3.695V1.695H121.323V3.695H123.323ZM131.578 3.695H133.578V1.695H131.578V3.695ZM131.578 26.25H129.578L133.263 27.3278L131.578 26.25ZM146.008 3.695V1.695H144.913L144.323 2.61717L146.008 3.695ZM155.563 3.695L157.212 4.82684L159.361 1.695H155.563V3.695ZM140.125 26.185L138.476 25.0532L137.679 26.2143L138.504 27.356L140.125 26.185ZM156.603 49V51H160.514L158.224 47.829L156.603 49ZM146.203 49L144.543 50.1163L145.138 51H146.203V49ZM131.578 27.2575L133.237 26.1412L129.578 27.2575H131.578ZM131.578 49V51H133.578V49H131.578ZM123.323 49H125.323V3.695H123.323H121.323V49H123.323ZM123.323 3.695V5.695H131.578V3.695V1.695H123.323V3.695ZM131.578 3.695H129.578V26.25H131.578H133.578V3.695H131.578ZM131.578 26.25L133.263 27.3278L147.693 4.77283L146.008 3.695L144.323 2.61717L129.893 25.1722L131.578 26.25ZM146.008 3.695V5.695H155.563V3.695V1.695H146.008V3.695ZM155.563 3.695L153.914 2.56315L138.476 25.0532L140.125 26.185L141.774 27.3168L157.212 4.82684L155.563 3.695ZM140.125 26.185L138.504 27.356L154.981 50.171L156.603 49L158.224 47.829L141.747 25.014L140.125 26.185ZM156.603 49V47H146.203V49V51H156.603V49ZM146.203 49L147.862 47.8837L133.237 26.1412L131.578 27.2575L129.918 28.3738L144.543 50.1163L146.203 49ZM131.578 27.2575H129.578V49H131.578H133.578V27.2575H131.578ZM131.578 49V47H123.323V49V51H131.578V49ZM165.911 49H163.911V51H165.911V49ZM165.911 3.695V1.695H163.911V3.695H165.911ZM174.231 3.695H176.231V1.695H174.231V3.695ZM174.231 49V51H176.231V49H174.231ZM165.911 49H167.911V3.695H165.911H163.911V49H165.911ZM165.911 3.695V5.695H174.231V3.695V1.695H165.911V3.695ZM174.231 3.695H172.231V49H174.231H176.231V3.695H174.231ZM174.231 49V47H165.911V49V51H174.231V49ZM212.351 48.35L211.538 50.1769L211.545 50.1803L211.553 50.1836L212.351 48.35ZM206.436 43.9625L204.934 45.283L204.942 45.2918L204.95 45.3004L206.436 43.9625ZM202.309 36.455L200.413 37.0915L202.309 36.455ZM203.349 13.25L201.567 12.342L201.565 12.3464L203.349 13.25ZM210.271 5.5475L211.302 7.26135L211.306 7.25909L210.271 5.5475ZM225.709 3.5975L225.127 5.51086L225.134 5.51315L225.709 3.5975ZM229.316 5.2225L228.162 6.85533L228.171 6.86186L228.18 6.86829L229.316 5.2225ZM231.526 6.945L233.291 7.88618L234.018 6.52316L232.883 5.47539L231.526 6.945ZM227.886 13.77L226.411 15.12L228.32 17.2069L229.651 14.7112L227.886 13.77ZM224.994 11.3325L223.927 13.0243L223.941 13.0327L223.954 13.0409L224.994 11.3325ZM214.561 12.3075L213.294 10.7605L213.283 10.7693L214.561 12.3075ZM211.019 17.605L209.14 16.9186L209.137 16.9289L211.019 17.605ZM212.644 38.08L210.97 39.1748L210.975 39.1821L210.98 39.1894L212.644 38.08ZM224.766 41.4925L224.019 39.6375L224.766 41.4925ZM228.016 39.51L229.765 38.5387L228.457 36.1846L226.581 38.1171L228.016 39.51ZM231.591 45.945L232.861 47.4905L234.15 46.4318L233.34 44.9737L231.591 45.945ZM229.154 47.6025L230.166 49.3274L230.178 49.3207L229.154 47.6025ZM225.221 49.13L224.706 47.1975L224.7 47.1993L225.221 49.13ZM213.034 65.705L213.941 63.9227L213.928 63.9161L213.915 63.9097L213.034 65.705ZM210.499 64.145L208.605 63.5034L208.186 64.741L209.15 65.622L210.499 64.145ZM211.864 60.115L212.776 58.3349L210.713 57.2785L209.97 59.4734L211.864 60.115ZM214.269 61.1225L214.901 59.2251L214.875 59.2164L214.849 59.2085L214.269 61.1225ZM218.916 56.1175L218.108 57.9469L218.916 56.1175ZM214.951 55.565L215.216 57.5475L214.951 55.565ZM214.009 55.695L212.052 55.2838L211.465 58.0788L214.292 57.6749L214.009 55.695ZM215.634 47.96V45.96H214.01L213.677 47.5488L215.634 47.96ZM221.484 47.96L223.419 48.4638L224.071 45.96H221.484V47.96ZM220.249 52.705L218.313 52.2012L217.662 54.705H220.249V52.705ZM225.059 54.6875L223.621 56.0779L223.627 56.084L223.633 56.09L225.059 54.6875ZM225.514 63.9825L224.056 62.6136L224.048 62.6216L224.041 62.6297L225.514 63.9825ZM221.711 66.095L221.278 64.1426L221.711 66.095ZM219.176 49.78V47.78C217.093 47.78 215.089 47.3612 213.15 46.5164L212.351 48.35L211.553 50.1836C213.99 51.2455 216.537 51.78 219.176 51.78V49.78ZM212.351 48.35L213.165 46.5231C211.257 45.6726 209.509 44.3862 207.923 42.6246L206.436 43.9625L204.95 45.3004C206.874 47.4388 209.07 49.0774 211.538 50.1769L212.351 48.35ZM206.436 43.9625L207.939 42.642C206.415 40.9084 205.157 38.6536 204.205 35.8185L202.309 36.455L200.413 37.0915C201.498 40.323 202.992 43.0732 204.934 45.283L206.436 43.9625ZM202.309 36.455L204.205 35.8185C203.272 33.0395 202.781 29.689 202.781 25.73H200.781H198.781C198.781 30.0043 199.309 33.8039 200.413 37.0915L202.309 36.455ZM200.781 25.73H202.781C202.781 21.012 203.6 17.1816 205.133 14.1536L203.349 13.25L201.565 12.3464C199.675 16.0784 198.781 20.568 198.781 25.73H200.781ZM203.349 13.25L205.131 14.158C206.718 11.0437 208.783 8.77655 211.302 7.26135L210.271 5.5475L209.241 3.83365C205.996 5.78511 203.447 8.65297 201.567 12.342L203.349 13.25ZM210.271 5.5475L211.306 7.25909C213.886 5.6995 216.733 4.915 219.891 4.915V2.915V0.914997C216.03 0.914997 212.463 1.88549 209.237 3.83591L210.271 5.5475ZM219.891 2.915V4.915C222.17 4.915 223.892 5.13505 225.127 5.51085L225.709 3.5975L226.291 1.68415C224.536 1.14994 222.38 0.914997 219.891 0.914997V2.915ZM225.709 3.5975L225.134 5.51315C226.529 5.93163 227.511 6.39497 228.162 6.85533L229.316 5.2225L230.471 3.58966C229.346 2.79336 227.922 2.17337 226.284 1.68185L225.709 3.5975ZM229.316 5.2225L228.18 6.86829C229.043 7.46435 229.699 7.97955 230.17 8.41461L231.526 6.945L232.883 5.47539C232.228 4.87044 231.41 4.23731 230.453 3.5767L229.316 5.2225ZM231.526 6.945L229.762 6.00382L226.122 12.8288L227.886 13.77L229.651 14.7112L233.291 7.88618L231.526 6.945ZM227.886 13.77L229.362 12.42C228.325 11.2869 227.218 10.3451 226.034 9.6241L224.994 11.3325L223.954 13.0409C224.763 13.5333 225.584 14.2164 226.411 15.12L227.886 13.77ZM224.994 11.3325L226.061 9.64065C224.572 8.7023 222.507 8.39 220.216 8.39V10.39V12.39C222.303 12.39 223.422 12.706 223.927 13.0243L224.994 11.3325ZM220.216 10.39V8.39C217.592 8.39 215.246 9.16061 213.294 10.7605L214.561 12.3075L215.829 13.8545C216.997 12.8977 218.421 12.39 220.216 12.39V10.39ZM214.561 12.3075L213.283 10.7693C211.423 12.3147 210.061 14.3996 209.14 16.9186L211.019 17.605L212.897 18.2914C213.624 16.3037 214.623 14.8569 215.84 13.8457L214.561 12.3075ZM211.019 17.605L209.137 16.9289C208.242 19.4184 207.816 22.2109 207.816 25.275H209.816H211.816C211.816 22.5758 212.192 20.2549 212.901 18.2811L211.019 17.605ZM209.816 25.275H207.816C207.816 31.0935 208.776 35.8199 210.97 39.1748L212.644 38.08L214.318 36.9852C212.742 34.5768 211.816 30.7665 211.816 25.275H209.816ZM212.644 38.08L210.98 39.1894C213.137 42.425 215.976 44.37 219.501 44.37V42.37V40.37C217.697 40.37 215.964 39.455 214.308 36.9706L212.644 38.08ZM219.501 42.37V44.37C221.739 44.37 223.763 44.0533 225.514 43.3475L224.766 41.4925L224.019 39.6375C222.867 40.1017 221.38 40.37 219.501 40.37V42.37ZM224.766 41.4925L225.514 43.3475C227.102 42.7076 228.467 41.917 229.452 40.903L228.016 39.51L226.581 38.1171C226.136 38.5764 225.334 39.1074 224.019 39.6375L224.766 41.4925ZM228.016 39.51L226.268 40.4813L229.843 46.9163L231.591 45.945L233.34 44.9737L229.765 38.5387L228.016 39.51ZM231.591 45.945L230.322 44.3995C229.821 44.8109 229.101 45.3059 228.13 45.8843L229.154 47.6025L230.178 49.3207C231.243 48.6858 232.148 48.0758 232.861 47.4905L231.591 45.945ZM229.154 47.6025L228.142 45.8777C227.354 46.3402 226.228 46.7916 224.706 47.1975L225.221 49.13L225.737 51.0625C227.465 50.6017 228.961 50.0348 230.166 49.3273L229.154 47.6025ZM225.221 49.13L224.7 47.1993C223.325 47.5708 221.5 47.78 219.176 47.78V49.78V51.78C221.706 51.78 223.911 51.5559 225.743 51.0607L225.221 49.13ZM216.804 66.615V64.615C215.802 64.615 214.855 64.388 213.941 63.9227L213.034 65.705L212.127 67.4873C213.596 68.2353 215.163 68.615 216.804 68.615V66.615ZM213.034 65.705L213.915 63.9097C212.763 63.344 212.129 62.9246 211.848 62.668L210.499 64.145L209.15 65.622C209.866 66.2754 210.922 66.896 212.153 67.5003L213.034 65.705ZM210.499 64.145L212.393 64.7866L213.758 60.7566L211.864 60.115L209.97 59.4734L208.605 63.5034L210.499 64.145ZM211.864 60.115L210.952 61.8951C211.914 62.3877 212.829 62.7759 213.689 63.0366L214.269 61.1225L214.849 59.2085C214.279 59.0357 213.591 58.7523 212.776 58.3349L211.864 60.115ZM214.269 61.1225L213.637 63.0199C214.544 63.3225 215.473 63.48 216.414 63.48V61.48V59.48C215.925 59.48 215.424 59.3992 214.901 59.2251L214.269 61.1225ZM216.414 61.48V63.48C217.955 63.48 219.431 63.0906 220.591 62.0752L219.274 60.57L217.957 59.0648C217.731 59.2628 217.299 59.48 216.414 59.48V61.48ZM219.274 60.57L220.591 62.0752C221.601 61.1914 222.314 60.0079 222.314 58.555H220.314H218.314C218.314 58.5754 218.334 58.7352 217.957 59.0648L219.274 60.57ZM220.314 58.555H222.314C222.314 57.7 222.15 56.8267 221.7 56.0409C221.236 55.2319 220.545 54.6503 219.725 54.2881L218.916 56.1175L218.108 57.9469C218.173 57.9758 218.202 57.9985 218.21 58.0058C218.217 58.012 218.222 58.0174 218.23 58.0304C218.245 58.0571 218.314 58.1967 218.314 58.555H220.314ZM218.916 56.1175L219.725 54.2881C218.533 53.7615 217.271 53.5 215.959 53.5V55.5V57.5C216.727 57.5 217.437 57.6501 218.108 57.9469L218.916 56.1175ZM215.959 55.5V53.5C215.529 53.5 215.105 53.5269 214.687 53.5825L214.951 55.565L215.216 57.5475C215.448 57.5164 215.696 57.5 215.959 57.5V55.5ZM214.951 55.565L214.687 53.5825C214.356 53.6266 214.036 53.6708 213.726 53.7151L214.009 55.695L214.292 57.6749C214.589 57.6325 214.897 57.59 215.216 57.5475L214.951 55.565ZM214.009 55.695L215.966 56.1062L217.591 48.3712L215.634 47.96L213.677 47.5488L212.052 55.2838L214.009 55.695ZM215.634 47.96V49.96H221.484V47.96V45.96H215.634V47.96ZM221.484 47.96L219.548 47.4562L218.313 52.2012L220.249 52.705L222.184 53.2088L223.419 48.4638L221.484 47.96ZM220.249 52.705V54.705C221.665 54.705 222.74 55.1666 223.621 56.0779L225.059 54.6875L226.497 53.2971C224.821 51.5651 222.69 50.705 220.249 50.705V52.705ZM225.059 54.6875L223.633 56.09C224.604 57.0773 225.009 58.093 225.009 59.205H227.009H229.009C229.009 56.937 228.114 54.941 226.485 53.285L225.059 54.6875ZM227.009 59.205H225.009C225.009 61.0504 224.573 62.0623 224.056 62.6136L225.514 63.9825L226.972 65.3514C228.448 63.7794 229.009 61.6063 229.009 59.205H227.009ZM225.514 63.9825L224.041 62.6297C223.373 63.3574 222.483 63.8747 221.278 64.1426L221.711 66.095L222.145 68.0474C224.06 67.622 225.705 66.731 226.987 65.3353L225.514 63.9825ZM221.711 66.095L221.278 64.1426C219.87 64.4555 218.38 64.615 216.804 64.615V66.615V68.615C218.651 68.615 220.433 68.4279 222.145 68.0474L221.711 66.095ZM241.994 49H239.994V51H241.994V49ZM241.994 3.695V1.695H239.994V3.695H241.994ZM265.654 3.695H267.654V1.695H265.654V3.695ZM265.654 10.78V12.78H267.654V10.78H265.654ZM250.119 10.78V8.78H248.119V10.78H250.119ZM250.119 21.375H248.119V23.375H250.119V21.375ZM262.469 21.375H264.469V19.375H262.469V21.375ZM262.469 28.265V30.265H264.469V28.265H262.469ZM250.119 28.265V26.265H248.119V28.265H250.119ZM250.119 41.655H248.119V43.655H250.119V41.655ZM266.954 41.655H268.954V39.655H266.954V41.655ZM266.954 49V51H268.954V49H266.954ZM241.994 49H243.994V3.695H241.994H239.994V49H241.994ZM241.994 3.695V5.695H265.654V3.695V1.695H241.994V3.695ZM265.654 3.695H263.654V10.78H265.654H267.654V3.695H265.654ZM265.654 10.78V8.78H250.119V10.78V12.78H265.654V10.78ZM250.119 10.78H248.119V21.375H250.119H252.119V10.78H250.119ZM250.119 21.375V23.375H262.469V21.375V19.375H250.119V21.375ZM262.469 21.375H260.469V28.265H262.469H264.469V21.375H262.469ZM262.469 28.265V26.265H250.119V28.265V30.265H262.469V28.265ZM250.119 28.265H248.119V41.655H250.119H252.119V28.265H250.119ZM250.119 41.655V43.655H266.954V41.655V39.655H250.119V41.655ZM266.954 41.655H264.954V49H266.954H268.954V41.655H266.954ZM266.954 49V47H241.994V49V51H266.954V49ZM289.897 49.2275L288.038 49.963L288.538 51.2275H289.897V49.2275ZM271.892 3.695V1.695H268.951L270.033 4.43045L271.892 3.695ZM280.927 3.695L282.81 3.02038L282.335 1.695H280.927V3.695ZM288.077 23.65L289.976 23.0224L289.969 22.9988L289.96 22.9754L288.077 23.65ZM290.58 31.2225L288.681 31.8501L290.58 37.5964L292.479 31.8501L290.58 31.2225ZM293.082 23.65L291.192 22.9973L291.188 23.0098L291.184 23.0224L293.082 23.65ZM299.972 3.695V1.695H298.547L298.082 3.04226L299.972 3.695ZM308.877 3.695L310.738 4.42815L311.815 1.695H308.877V3.695ZM290.937 49.2275V51.2275H292.299L292.798 49.9607L290.937 49.2275ZM289.897 49.2275L291.757 48.4921L273.752 2.95955L271.892 3.695L270.033 4.43045L288.038 49.963L289.897 49.2275ZM271.892 3.695V5.695H280.927V3.695V1.695H271.892V3.695ZM280.927 3.695L279.045 4.36961L286.195 24.3246L288.077 23.65L289.96 22.9754L282.81 3.02038L280.927 3.695ZM288.077 23.65L286.178 24.2776L288.681 31.8501L290.58 31.2225L292.479 30.5949L289.976 23.0224L288.077 23.65ZM290.58 31.2225L292.479 31.8501L294.981 24.2776L293.082 23.65L291.184 23.0224L288.681 30.5949L290.58 31.2225ZM293.082 23.65L294.973 24.3027L301.863 4.34774L299.972 3.695L298.082 3.04226L291.192 22.9973L293.082 23.65ZM299.972 3.695V5.695H308.877V3.695V1.695H299.972V3.695ZM308.877 3.695L307.017 2.96184L289.077 48.4943L290.937 49.2275L292.798 49.9607L310.738 4.42815L308.877 3.695ZM290.937 49.2275V47.2275H289.897V49.2275V51.2275H290.937V49.2275ZM316.731 49H314.731V51H316.731V49ZM316.731 3.695V1.695H314.731V3.695H316.731ZM325.051 3.695H327.051V1.695H325.051V3.695ZM325.051 49V51H327.051V49H325.051ZM316.731 49H318.731V3.695H316.731H314.731V49H316.731ZM316.731 3.695V5.695H325.051V3.695V1.695H316.731V3.695ZM325.051 3.695H323.051V49H325.051H327.051V3.695H325.051ZM325.051 49V47H316.731V49V51H325.051V49ZM367.8 49V51H371.781L369.405 47.8064L367.8 49ZM357.725 49L356.095 50.1582L356.693 51H357.725V49ZM346.09 32.62L347.721 31.4618L344.09 32.62H346.09ZM346.09 49V51H348.09V49H346.09ZM337.835 49H335.835V51H337.835V49ZM337.835 3.695V1.695H335.835V3.695H337.835ZM358.701 5.06L357.998 6.93266L358.006 6.93541L358.013 6.93811L358.701 5.06ZM364.453 9.545L366.114 8.43165L364.453 9.545ZM365.558 24.235L363.653 23.6261L363.649 23.6384L365.558 24.235ZM362.275 29.825L360.814 28.4597L360.809 28.4648L360.804 28.47L362.275 29.825ZM356.1 33.27L355.615 31.3297L352.706 32.0571L354.496 34.4636L356.1 33.27ZM346.09 28.525H344.09V30.525H346.09V28.525ZM354.313 27.1925L355.454 28.8349L355.46 28.831L354.313 27.1925ZM357.238 23.65L355.418 22.8204L355.413 22.8327L357.238 23.65ZM356.23 12.3725L354.763 13.7309L354.768 13.7364L354.773 13.7418L356.23 12.3725ZM346.09 10.195V8.195H344.09V10.195H346.09ZM367.8 49V47H357.725V49V51H367.8V49ZM357.725 49L359.356 47.8418L347.721 31.4618L346.09 32.62L344.46 33.7782L356.095 50.1582L357.725 49ZM346.09 32.62H344.09V49H346.09H348.09V32.62H346.09ZM346.09 49V47H337.835V49V51H346.09V49ZM337.835 49H339.835V3.695H337.835H335.835V49H337.835ZM337.835 3.695V5.695H350.445V3.695V1.695H337.835V3.695ZM350.445 3.695V5.695C353.326 5.695 355.834 6.12099 357.998 6.93266L358.701 5.06L359.403 3.18734C356.714 2.179 353.718 1.695 350.445 1.695V3.695ZM358.701 5.06L358.013 6.93811C360.051 7.68432 361.624 8.91622 362.792 10.6583L364.453 9.545L366.114 8.43165C364.465 5.97044 362.203 4.21234 359.388 3.18188L358.701 5.06ZM364.453 9.545L362.792 10.6583C363.903 12.3172 364.565 14.7401 364.565 18.125H366.565H368.565C368.565 14.2733 367.82 10.9761 366.114 8.43165L364.453 9.545ZM366.565 18.125H364.565C364.565 19.8671 364.269 21.6982 363.653 23.6262L365.558 24.235L367.463 24.8438C368.19 22.5685 368.565 20.3263 368.565 18.125H366.565ZM365.558 24.235L363.649 23.6384C363.092 25.422 362.155 27.0247 360.814 28.4597L362.275 29.825L363.737 31.1903C365.473 29.3319 366.724 27.208 367.467 24.8316L365.558 24.235ZM362.275 29.825L360.804 28.47C359.601 29.7771 357.912 30.7555 355.615 31.3297L356.1 33.27L356.586 35.2103C359.489 34.4845 361.917 33.1663 363.747 31.18L362.275 29.825ZM356.1 33.27L354.496 34.4636L366.196 50.1936L367.8 49L369.405 47.8064L357.705 32.0764L356.1 33.27ZM346.09 28.525V30.525H349.535V28.525V26.525H346.09V28.525ZM349.535 28.525V30.525C351.757 30.525 353.772 30.004 355.454 28.8349L354.313 27.1925L353.172 25.5501C352.297 26.1577 351.127 26.525 349.535 26.525V28.525ZM354.313 27.1925L355.46 28.831C357.057 27.7131 358.266 26.2482 359.063 24.4673L357.238 23.65L355.413 22.8327C354.91 23.9551 354.169 24.8519 353.166 25.554L354.313 27.1925ZM357.238 23.65L359.058 24.4796C359.853 22.7344 360.245 20.8684 360.245 18.905H358.245H356.245C356.245 20.3216 355.966 21.6189 355.418 22.8204L357.238 23.65ZM358.245 18.905H360.245C360.245 15.7163 359.518 12.9506 357.688 11.0031L356.23 12.3725L354.773 13.7418C355.63 14.6544 356.245 16.2437 356.245 18.905H358.245ZM356.23 12.3725L357.698 11.0141C355.793 8.95488 352.803 8.195 349.34 8.195V10.195V12.195C352.378 12.195 353.981 12.8868 354.763 13.7309L356.23 12.3725ZM349.34 10.195V8.195H346.09V10.195V12.195H349.34V10.195ZM346.09 10.195H344.09V28.525H346.09H348.09V10.195H346.09ZM406.555 49.2275L404.695 49.963L405.195 51.2275H406.555V49.2275ZM388.55 3.695V1.695H385.608L386.69 4.43045L388.55 3.695ZM397.585 3.695L399.467 3.02038L398.993 1.695H397.585V3.695ZM404.735 23.65L406.634 23.0224L406.626 22.9988L406.617 22.9754L404.735 23.65ZM407.237 31.2225L405.338 31.8501L407.237 37.5964L409.136 31.8501L407.237 31.2225ZM409.74 23.65L407.849 22.9973L407.845 23.0098L407.841 23.0224L409.74 23.65ZM416.63 3.695V1.695H415.204L414.739 3.04226L416.63 3.695ZM425.535 3.695L427.395 4.42815L428.472 1.695H425.535V3.695ZM407.595 49.2275V51.2275H408.956L409.455 49.9607L407.595 49.2275ZM406.555 49.2275L408.415 48.4921L390.41 2.95955L388.55 3.695L386.69 4.43045L404.695 49.963L406.555 49.2275ZM388.55 3.695V5.695H397.585V3.695V1.695H388.55V3.695ZM397.585 3.695L395.702 4.36961L402.852 24.3246L404.735 23.65L406.617 22.9754L399.467 3.02038L397.585 3.695ZM404.735 23.65L402.836 24.2776L405.338 31.8501L407.237 31.2225L409.136 30.5949L406.634 23.0224L404.735 23.65ZM407.237 31.2225L409.136 31.8501L411.639 24.2776L409.74 23.65L407.841 23.0224L405.338 30.5949L407.237 31.2225ZM409.74 23.65L411.63 24.3027L418.52 4.34774L416.63 3.695L414.739 3.04226L407.849 22.9973L409.74 23.65ZM416.63 3.695V5.695H425.535V3.695V1.695H416.63V3.695ZM425.535 3.695L423.674 2.96184L405.734 48.4943L407.595 49.2275L409.455 49.9607L427.395 4.42815L425.535 3.695ZM407.595 49.2275V47.2275H406.555V49.2275V51.2275H407.595V49.2275ZM433.389 49H431.389V51H433.389V49ZM433.389 3.695V1.695H431.389V3.695H433.389ZM457.049 3.695H459.049V1.695H457.049V3.695ZM457.049 10.78V12.78H459.049V10.78H457.049ZM441.514 10.78V8.78H439.514V10.78H441.514ZM441.514 21.375H439.514V23.375H441.514V21.375ZM453.864 21.375H455.864V19.375H453.864V21.375ZM453.864 28.265V30.265H455.864V28.265H453.864ZM441.514 28.265V26.265H439.514V28.265H441.514ZM441.514 41.655H439.514V43.655H441.514V41.655ZM458.349 41.655H460.349V39.655H458.349V41.655ZM458.349 49V51H460.349V49H458.349ZM433.389 49H435.389V3.695H433.389H431.389V49H433.389ZM433.389 3.695V5.695H457.049V3.695V1.695H433.389V3.695ZM457.049 3.695H455.049V10.78H457.049H459.049V3.695H457.049ZM457.049 10.78V8.78H441.514V10.78V12.78H457.049V10.78ZM441.514 10.78H439.514V21.375H441.514H443.514V10.78H441.514ZM441.514 21.375V23.375H453.864V21.375V19.375H441.514V21.375ZM453.864 21.375H451.864V28.265H453.864H455.864V21.375H453.864ZM453.864 28.265V26.265H441.514V28.265V30.265H453.864V28.265ZM441.514 28.265H439.514V41.655H441.514H443.514V28.265H441.514ZM441.514 41.655V43.655H458.349V41.655V39.655H441.514V41.655ZM458.349 41.655H456.349V49H458.349H460.349V41.655H458.349ZM458.349 49V47H433.389V49V51H458.349V49ZM125.31 112H123.31V114H125.31V112ZM125.31 66.695V64.695H123.31V66.695H125.31ZM133.565 66.695H135.565V64.695H133.565V66.695ZM133.565 89.25H131.565L135.249 90.3278L133.565 89.25ZM147.995 66.695V64.695H146.9L146.31 65.6172L147.995 66.695ZM157.55 66.695L159.199 67.8268L161.348 64.695H157.55V66.695ZM142.112 89.185L140.463 88.0532L139.666 89.2143L140.491 90.356L142.112 89.185ZM158.59 112V114H162.501L160.211 110.829L158.59 112ZM148.19 112L146.53 113.116L147.125 114H148.19V112ZM133.565 90.2575L135.224 89.1412L131.565 90.2575H133.565ZM133.565 112V114H135.565V112H133.565ZM125.31 112H127.31V66.695H125.31H123.31V112H125.31ZM125.31 66.695V68.695H133.565V66.695V64.695H125.31V66.695ZM133.565 66.695H131.565V89.25H133.565H135.565V66.695H133.565ZM133.565 89.25L135.249 90.3278L149.679 67.7728L147.995 66.695L146.31 65.6172L131.88 88.1722L133.565 89.25ZM147.995 66.695V68.695H157.55V66.695V64.695H147.995V66.695ZM157.55 66.695L155.901 65.5632L140.463 88.0532L142.112 89.185L143.761 90.3168L159.199 67.8268L157.55 66.695ZM142.112 89.185L140.491 90.356L156.968 113.171L158.59 112L160.211 110.829L143.733 88.014L142.112 89.185ZM158.59 112V110H148.19V112V114H158.59V112ZM148.19 112L149.849 110.884L135.224 89.1412L133.565 90.2575L131.905 91.3738L146.53 113.116L148.19 112ZM133.565 90.2575H131.565V112H133.565H135.565V90.2575H133.565ZM133.565 112V110H125.31V112V114H133.565V112ZM161.845 112L159.999 111.232L158.847 114H161.845V112ZM181.02 65.915V63.915H179.686L179.174 65.1467L181.02 65.915ZM181.67 65.915L183.516 65.1445L183.003 63.915H181.67V65.915ZM200.91 112V114H203.912L202.756 111.229L200.91 112ZM192.07 112L190.204 112.72L190.699 114H192.07V112ZM189.535 105.435L191.401 104.715L190.907 103.435H189.535V105.435ZM173.35 105.435V103.435H171.953L171.472 104.747L173.35 105.435ZM170.945 112V114H172.342L172.823 112.688L170.945 112ZM180.24 86.78L182.117 87.4714L182.143 87.4013L182.163 87.3294L180.24 86.78ZM175.69 99.13L173.814 98.4386L172.822 101.13H175.69V99.13ZM187.13 99.13V101.13H190.041L188.997 98.4127L187.13 99.13ZM182.385 86.78L180.471 87.361L180.492 87.43L180.518 87.4973L182.385 86.78ZM181.28 83.14L183.194 82.559L179.357 82.5906L181.28 83.14ZM161.845 112L163.692 112.768L182.867 66.6833L181.02 65.915L179.174 65.1467L159.999 111.232L161.845 112ZM181.02 65.915V67.915H181.67V65.915V63.915H181.02V65.915ZM181.67 65.915L179.825 66.6855L199.065 112.771L200.91 112L202.756 111.229L183.516 65.1445L181.67 65.915ZM200.91 112V110H192.07V112V114H200.91V112ZM192.07 112L193.936 111.28L191.401 104.715L189.535 105.435L187.669 106.155L190.204 112.72L192.07 112ZM189.535 105.435V103.435H173.35V105.435V107.435H189.535V105.435ZM173.35 105.435L171.472 104.747L169.067 111.312L170.945 112L172.823 112.688L175.228 106.123L173.35 105.435ZM170.945 112V110H161.845V112V114H170.945V112ZM180.24 86.78L178.364 86.0886L173.814 98.4386L175.69 99.13L177.567 99.8214L182.117 87.4714L180.24 86.78ZM175.69 99.13V101.13H187.13V99.13V97.13H175.69V99.13ZM187.13 99.13L188.997 98.4127L184.252 86.0627L182.385 86.78L180.518 87.4973L185.263 99.8473L187.13 99.13ZM182.385 86.78L184.299 86.199L183.194 82.559L181.28 83.14L179.366 83.721L180.471 87.361L182.385 86.78ZM181.28 83.14L179.357 82.5906L178.317 86.2306L180.24 86.78L182.163 87.3294L183.203 83.6894L181.28 83.14ZM205.03 112L203.221 111.148L201.877 114H205.03V112ZM223.068 73.715L224.877 74.5674L226.221 71.715H223.068V73.715ZM207.175 73.715H205.175V75.715H207.175V73.715ZM207.175 66.695V64.695H205.175V66.695H207.175ZM235.32 66.695L237.133 67.5386L238.456 64.695H235.32V66.695ZM217.51 104.98L215.697 104.136L214.374 106.98H217.51V104.98ZM234.475 104.98H236.475V102.98H234.475V104.98ZM234.475 112V114H236.475V112H234.475ZM205.03 112L206.839 112.852L224.877 74.5674L223.068 73.715L221.258 72.8626L203.221 111.148L205.03 112ZM223.068 73.715V71.715H207.175V73.715V75.715H223.068V73.715ZM207.175 73.715H209.175V66.695H207.175H205.175V73.715H207.175ZM207.175 66.695V68.695H235.32V66.695V64.695H207.175V66.695ZM235.32 66.695L233.507 65.8514L215.697 104.136L217.51 104.98L219.323 105.824L237.133 67.5386L235.32 66.695ZM217.51 104.98V106.98H234.475V104.98V102.98H217.51V104.98ZM234.475 104.98H232.475V112H234.475H236.475V104.98H234.475ZM234.475 112V110H205.03V112V114H234.475V112ZM239.312 112L237.465 111.232L236.314 114H239.312V112ZM258.487 65.915V63.915H257.153L256.64 65.1467L258.487 65.915ZM259.137 65.915L260.983 65.1445L260.469 63.915H259.137V65.915ZM278.377 112V114H281.379L280.223 111.229L278.377 112ZM269.537 112L267.671 112.72L268.165 114H269.537V112ZM267.002 105.435L268.868 104.715L268.374 103.435H267.002V105.435ZM250.817 105.435V103.435H249.42L248.939 104.747L250.817 105.435ZM248.412 112V114H249.809L250.29 112.688L248.412 112ZM257.707 86.78L259.584 87.4714L259.609 87.4013L259.63 87.3294L257.707 86.78ZM253.157 99.13L251.28 98.4386L250.289 101.13H253.157V99.13ZM264.597 99.13V101.13H267.508L266.464 98.4127L264.597 99.13ZM259.852 86.78L257.938 87.361L257.959 87.43L257.985 87.4973L259.852 86.78ZM258.747 83.14L260.661 82.559L256.824 82.5906L258.747 83.14ZM239.312 112L241.159 112.768L260.334 66.6833L258.487 65.915L256.64 65.1467L237.465 111.232L239.312 112ZM258.487 65.915V67.915H259.137V65.915V63.915H258.487V65.915ZM259.137 65.915L257.291 66.6855L276.531 112.771L278.377 112L280.223 111.229L260.983 65.1445L259.137 65.915ZM278.377 112V110H269.537V112V114H278.377V112ZM269.537 112L271.403 111.28L268.868 104.715L267.002 105.435L265.136 106.155L267.671 112.72L269.537 112ZM267.002 105.435V103.435H250.817V105.435V107.435H267.002V105.435ZM250.817 105.435L248.939 104.747L246.534 111.312L248.412 112L250.29 112.688L252.695 106.123L250.817 105.435ZM248.412 112V110H239.312V112V114H248.412V112ZM257.707 86.78L255.83 86.0886L251.28 98.4386L253.157 99.13L255.034 99.8214L259.584 87.4714L257.707 86.78ZM253.157 99.13V101.13H264.597V99.13V97.13H253.157V99.13ZM264.597 99.13L266.464 98.4127L261.719 86.0627L259.852 86.78L257.985 87.4973L262.73 99.8473L264.597 99.13ZM259.852 86.78L261.766 86.199L260.661 82.559L258.747 83.14L256.833 83.721L257.938 87.361L259.852 86.78ZM258.747 83.14L256.824 82.5906L255.784 86.2306L257.707 86.78L259.63 87.3294L260.67 83.6894L258.747 83.14ZM316.589 112.91L315.085 114.228L315.683 114.91H316.589V112.91ZM294.879 88.145L293.299 89.3701L293.336 89.4179L293.375 89.4634L294.879 88.145ZM292.864 85.545L294.445 84.3199L290.867 85.648L292.864 85.545ZM293.189 91.85H295.189V91.7985L295.187 91.747L293.189 91.85ZM293.189 112V114H295.189V112H293.189ZM285.194 112H283.194V114H285.194V112ZM285.194 65.915V63.915H283.194V65.915H285.194ZM285.909 65.915L287.428 64.6137L286.829 63.915H285.909V65.915ZM307.294 90.875L308.88 89.6556L308.847 89.6138L308.813 89.5737L307.294 90.875ZM309.569 93.8325L307.984 95.0519L311.567 93.7279L309.569 93.8325ZM309.244 87.625H307.244V87.6773L307.247 87.7296L309.244 87.625ZM309.244 66.695V64.695H307.244V66.695H309.244ZM317.239 66.695H319.239V64.695H317.239V66.695ZM317.239 112.91V114.91H319.239V112.91H317.239ZM316.589 112.91L318.093 111.592L296.383 86.8266L294.879 88.145L293.375 89.4634L315.085 114.228L316.589 112.91ZM294.879 88.145L296.46 86.9199L294.445 84.3199L292.864 85.545L291.284 86.7701L293.299 89.3701L294.879 88.145ZM292.864 85.545L290.867 85.648L291.192 91.953L293.189 91.85L295.187 91.747L294.862 85.442L292.864 85.545ZM293.189 91.85H291.189V112H293.189H295.189V91.85H293.189ZM293.189 112V110H285.194V112V114H293.189V112ZM285.194 112H287.194V65.915H285.194H283.194V112H285.194ZM285.194 65.915V67.915H285.909V65.915V63.915H285.194V65.915ZM285.909 65.915L284.391 67.2163L305.776 92.1763L307.294 90.875L308.813 89.5737L287.428 64.6137L285.909 65.915ZM307.294 90.875L305.709 92.0944L307.984 95.0519L309.569 93.8325L311.155 92.6131L308.88 89.6556L307.294 90.875ZM309.569 93.8325L311.567 93.7279L311.242 87.5204L309.244 87.625L307.247 87.7296L307.572 93.9371L309.569 93.8325ZM309.244 87.625H311.244V66.695H309.244H307.244V87.625H309.244ZM309.244 66.695V68.695H317.239V66.695V64.695H309.244V66.695ZM317.239 66.695H315.239V112.91H317.239H319.239V66.695H317.239ZM317.239 112.91V110.91H316.589V112.91V114.91H317.239V112.91ZM329.403 95.555L327.404 95.6054L327.453 97.555H329.403V95.555ZM328.558 62.015V60.015H326.507L326.559 62.0654L328.558 62.015ZM337.463 62.015L339.462 62.0692L339.518 60.015H337.463V62.015ZM336.553 95.555V97.555H338.499L338.552 95.6092L336.553 95.555ZM329.273 112H327.273V114H329.273V112ZM329.273 102.315V100.315H327.273V102.315H329.273ZM336.683 102.315H338.683V100.315H336.683V102.315ZM336.683 112V114H338.683V112H336.683ZM329.403 95.555L331.402 95.5046L330.557 61.9646L328.558 62.015L326.559 62.0654L327.404 95.6054L329.403 95.555ZM328.558 62.015V64.015H337.463V62.015V60.015H328.558V62.015ZM337.463 62.015L335.464 61.9608L334.554 95.5008L336.553 95.555L338.552 95.6092L339.462 62.0692L337.463 62.015ZM336.553 95.555V93.555H329.403V95.555V97.555H336.553V95.555ZM329.273 112H331.273V102.315H329.273H327.273V112H329.273ZM329.273 102.315V104.315H336.683V102.315V100.315H329.273V102.315ZM336.683 102.315H334.683V112H336.683H338.683V102.315H336.683ZM336.683 112V110H329.273V112V114H336.683V112Z" fill="url(#paint1_linear_3_148670)" mask="url(#path-1-outside-1_3_148670)"/>
</g>
<defs>
<filter id="filter0_d_3_148670" x="0.467773" y="0.915039" width="459.881" height="119.995" filterUnits="userSpaceOnUse" color-interpolation-filters="sRGB">
<feFlood flood-opacity="0" result="BackgroundImageFix"/>
<feColorMatrix in="SourceAlpha" type="matrix" values="0 0 0 0 0 0 0 0 0 0 0 0 0 0 0 0 0 0 127 0" result="hardAlpha"/>
<feOffset dy="6"/>
<feComposite in2="hardAlpha" operator="out"/>
<feColorMatrix type="matrix" values="0 0 0 0 0.591346 0 0 0 0 0.298516 0 0 0 0 0.00568602 0 0 0 1 0"/>
<feBlend mode="normal" in2="BackgroundImageFix" result="effect1_dropShadow_3_148670"/>
<feBlend mode="normal" in="SourceGraphic" in2="effect1_dropShadow_3_148670" result="shape"/>
</filter>
<linearGradient id="paint0_linear_3_148670" x1="232" y1="-6" x2="232" y2="120" gradientUnits="userSpaceOnUse">
<stop offset="0.6875" stop-color="white"/>
<stop offset="1" stop-color="#FFCCB1"/>
</linearGradient>
<linearGradient id="paint1_linear_3_148670" x1="232" y1="-6" x2="232" y2="120" gradientUnits="userSpaceOnUse">
<stop stop-color="#FF990A"/>
<stop offset="0.480769" stop-color="#FFE717"/>
<stop offset="1" stop-color="#FF990A"/>
</linearGradient>
</defs>
</svg>
